<?xml version="1.0" encoding="utf-8"?>
<!-- Generator: Adobe Illustrator 24.2.0, SVG Export Plug-In . SVG Version: 6.00 Build 0)  -->
<svg version="1.1" id="Ebene_1" xmlns="http://www.w3.org/2000/svg" xmlns:xlink="http://www.w3.org/1999/xlink" x="0px" y="0px"
	 viewBox="0 0 18 18" style="enable-background:new 0 0 18 18;" xml:space="preserve">
<style type="text/css">
	.st0{fill:none;}
	.st1{fill:#27CADA;}
</style>
<path class="st0" d="M0,0h18v18H0V0z"/>
<path class="st1" d="M16.5,12V3c0-0.8-0.7-1.5-1.5-1.5H6C5.2,1.5,4.5,2.2,4.5,3v9c0,0.8,0.7,1.5,1.5,1.5h9
	C15.8,13.5,16.5,12.8,16.5,12z M8.5,9.4L9.8,11l1.9-2.4c0.2-0.2,0.4-0.2,0.6,0l2.2,2.8c0.2,0.2,0,0.6-0.3,0.6H6.8
	c-0.3,0-0.5-0.4-0.3-0.6l1.5-2C8.1,9.2,8.4,9.2,8.5,9.4z M1.5,5.3V15c0,0.8,0.7,1.5,1.5,1.5h9.8c0.4,0,0.8-0.3,0.8-0.8
	c0-0.4-0.3-0.8-0.8-0.8h-9C3.3,15,3,14.7,3,14.3v-9c0-0.4-0.3-0.8-0.8-0.8S1.5,4.8,1.5,5.3z"/>
</svg>
